<svg xmlns="http://www.w3.org/2000/svg" aria-hidden="true" style="position:absolute;width:0;height:0;overflow:hidden">
  <defs>
    <symbol id="icon-arrow-down" viewBox="0 0 32 32">
      <path fill="#fff" d="m31.33 15.949-3.232-3.232-9.813 9.813V.619h-4.571V22.53l-9.813-9.813-3.232 3.232 15.33 15.33 15.33-15.33z" style="fill:var(--color1, #fff)"/>
    </symbol>
    <symbol id="icon-burger-menu" viewBox="0 0 32 32">
      <path fill="#fff" d="M10.667 12h10.667v1.333H10.667V12zm2.666 3.333h8v1.333h-8v-1.333zm3.334 3.334h4.667V20h-4.667v-1.333z" style="fill:var(--color1, #fff)"/>
    </symbol>
    <symbol id="icon-caret-right" viewBox="0 0 31 32">
      <path fill="#fff" d="m11.52 25.527 10.24-8.96-10.24-8.96v17.92z" style="fill:var(--color1, #fff)"/>
    </symbol>
    <symbol id="icon-close" viewBox="0 0 32 32">
      <path fill="#fff" d="m22.835 22.364-.471.471a.668.668 0 0 1-.943 0L16 17.414l-5.421 5.421a.668.668 0 0 1-.943 0l-.471-.471a.668.668 0 0 1 0-.943L14.586 16l-5.421-5.421a.668.668 0 0 1 0-.943l.471-.471c.26-.26.682-.26.943 0L16 14.586l5.421-5.421c.26-.26.683-.26.943 0l.471.471c.26.26.26.682 0 .943L17.414 16l5.421 5.421c.26.26.26.683 0 .943z" style="fill:var(--color1, #fff)"/>
    </symbol>
    <symbol id="icon-Company-Logo" viewBox="0 0 73 32">
      <path fill="currentColor" d="M13.471 6.854c.258-.03.558.028.807.104a2.13 2.13 0 0 1 1.293 1.064c.282.538.336 1.167.15 1.745-.236.713-.744 1.071-1.377 1.401l.007 2.08c.453.138.893.295 1.304.533.945.548 1.591 1.471 1.862 2.522a4.297 4.297 0 0 1-.453 3.254c-.529.89-1.371 1.548-2.38 1.8-1.318.329-2.436-.028-3.569-.701a95.159 95.159 0 0 0-1.484 1.624c.218.515.29 1.055.145 1.602a2.09 2.09 0 0 1-.996 1.264 2.233 2.233 0 0 1-1.739.191c-.585-.167-1.076-.53-1.362-1.074-.281-.535-.305-1.162-.123-1.733.207-.649.63-1.049 1.224-1.346.639-.25 1.168-.168 1.791.057.52-.547 1.009-1.121 1.534-1.663-.577-1.131-.764-2.095-.464-3.342-.653-.305-1.283-.66-1.937-.966a2.28 2.28 0 0 1-1.277.697 2.333 2.333 0 0 1-1.72-.413 2.19 2.19 0 0 1-.886-1.486c-.081-.578.072-1.215.442-1.671.382-.47.974-.754 1.572-.817a2.223 2.223 0 0 1 1.63.498c.582.487.75 1.093.82 1.816.619.38 1.329.673 1.974 1.012.84-.993 1.454-1.306 2.678-1.683l.001-2.064a2.835 2.835 0 0 1-.629-.335 2.21 2.21 0 0 1-.878-1.491 2.242 2.242 0 0 1 .465-1.659c.404-.507.945-.738 1.572-.821zm2.7 10.269a2.593 2.593 0 1 0-5.163.455 2.593 2.593 0 0 0 5.163-.456zm48.393-3.225c.422.001.844.007 1.266.017l-.002 2.231c.326-.253.679-.441 1.092-.502a2.087 2.087 0 0 1 1.572.399c.542.409.825 1.099.908 1.758.105.835-.092 1.639-.607 2.305-.342.33-.753.561-1.226.639-.695.114-1.245-.129-1.787-.533l-.002.487-1.211-.002-.001-6.799zm2.17 2.923c-.377.125-.638.304-.822.666a1.665 1.665 0 0 0-.059 1.318c.122.321.349.599.666.742.23.104.447.107.694.093.393-.149.658-.339.836-.733.185-.411.183-.906.007-1.32a1.267 1.267 0 0 0-.702-.7 1.299 1.299 0 0 0-.621-.066zm-38.437-2.936c.743 2.289 1.693 4.516 2.418 6.811l-1.369.002c-.16-.49-.315-1.045-.56-1.498-.16-.068-.349-.045-.52-.043-.66.007-1.321.004-1.981-.007a19.644 19.644 0 0 0-.538 1.547l-1.394-.001c.728-2.285 1.596-4.541 2.382-6.808.52.011 1.043-.001 1.563-.003zm-.78 1.692c-.288.819-.557 1.65-.873 2.459l1.002-.001.779-.009c-.11-.309-.745-2.313-.909-2.449zM57.159 13.9l1.309.008c-.018 1.578-.004 3.159-.004 4.737 0 .651.066 1.363-.007 2.006l-.072.049h-1.227l-.003-2.914c-.981-.027-1.969-.003-2.951-.002v2.917l-1.317-.003.005-6.796 1.312.003.001 2.779h2.955l-.002-2.784zm2.096 1.884c.434.012.87.008 1.304.01-.005.695-.115 2.613.053 3.188.066.227.199.434.413.544.322.166.65.07.971-.043.142-.159.264-.307.334-.512.23-.67.107-2.388.103-3.185.414.011.829.002 1.243 0-.01.477-.002.956-.002 1.433l.006 3.478c-.407.006-.814.003-1.22-.009l-.038-.044a1.225 1.225 0 0 0-.01-.29c-.382.165-.721.416-1.154.424-.503.01-1.048-.146-1.409-.508-.274-.274-.441-.642-.526-1.015-.185-.803-.076-2.583-.068-3.472zm-17.596-.137c.649-.051 1.326-.005 1.85.432.368.306.487.674.526 1.131l-1.173-.001c-.068-.125-.135-.271-.241-.369a.9.9 0 0 0-.643-.225c-.178.01-.405.081-.515.231-.067.091-.104.186-.078.3.133.602 1.663.527 2.15.846.31.203.548.567.617.93.069.371-.02.755-.244 1.058-.374.515-.95.701-1.549.793-.555.034-1.199-.115-1.643-.454-.416-.317-.566-.706-.623-1.207.395.001.791-.003 1.186-.011.023.074.049.146.086.215.172.318.516.388.834.482.21-.048.495-.102.645-.272a.474.474 0 0 0 .084-.412c-.146-.503-1.612-.562-2.12-.875-.301-.186-.522-.456-.603-.804-.072-.316-.045-.671.133-.948.321-.501.763-.707 1.321-.84zm7.896-.002c.369-.03.731-.028 1.092.07.416.113.857.345 1.067.738.101.189.179.528.111.738-.337.073-.748.024-1.094.02-.051-.171-.094-.303-.233-.422a.845.845 0 0 0-.633-.192c-.179.018-.408.106-.508.266a.338.338 0 0 0-.047.303c.216.637 1.511.485 2.015.773.321.183.589.506.68.867.098.387.033.818-.19 1.151-.334.498-.864.685-1.423.793-.549.068-1.185-.049-1.645-.366-.471-.325-.613-.733-.719-1.266l1.176-.009c.071.18.136.32.289.445a.9.9 0 0 0 .706.207.76.76 0 0 0 .525-.29.45.45 0 0 0 .081-.383c-.147-.523-1.446-.491-1.961-.768a1.486 1.486 0 0 1-.734-.883 1.2 1.2 0 0 1 .117-.953c.285-.483.806-.719 1.33-.84zm-14.481-1.211c.39.013.784.005 1.175.007-.004.441.002.882.019 1.323l1.159.001-.003 1.01H36.32c0 .636-.145 2.276.147 2.767.228.18.683.112.959.109l-.004.837c.003.086.002.13-.042.205a1.09 1.09 0 0 1-.483.092c-.448.004-1.067-.077-1.39-.413-.647-.674-.441-2.657-.437-3.598l-.748.001.002-1.012.745.005.004-1.333zm10.075-.005 1.153.007c-.009.442.01.886.018 1.327l1.178-.002-.002 1.015-1.108-.001c.013.605-.135 2.295.139 2.753.295.176.664.129.995.128-.004.291.002.584.003.876l-.014.111c-.114.121-.29.115-.445.119-.474.011-1.128-.064-1.471-.423-.641-.671-.441-2.626-.436-3.564h-.789c-.01-.336-.006-.673-.009-1.009l.786.004.002-1.341zm-24.871-.755a.903.903 0 0 1 .18.005.665.665 0 0 1 .478.284c.11.176.125.409.14.613.075 1.006.019 2.053.019 3.063 0 .825.091 1.943-.062 2.737-.048.25-.214.369-.412.504-.076.009-.155.02-.231.015a.623.623 0 0 1-.441-.215c-.109-.128-.106-.386-.115-.548-.069-1.158-.011-2.352-.01-3.513.001-.66-.09-1.923.049-2.512.05-.211.239-.321.405-.433zm13.367 2.072.166-.002c.196.22.099.915.093 1.203-.415-.004-.807-.021-1.132.281-.61.566-.404 2.638-.41 3.47-.327-.003-.964.116-1.213-.091l-.013-.206c.006-1.541-.033-3.082-.023-4.623.396.012.793.004 1.189.002l-.014.681c.073-.105.146-.218.232-.314.3-.338.707-.369 1.127-.399zm4.502.02 1.243.001.003 4.933-1.258-.002.011-4.932zM18.54 15.29c.204.038.385.114.504.292.183.274.188 2.954.096 3.336-.05.209-.231.311-.403.412-.197-.012-.455-.029-.586-.2-.195-.253-.179-3.102-.068-3.459.065-.207.278-.295.456-.381zm20.147-1.556a.689.689 0 1 1 .16 1.368.689.689 0 0 1-.16-1.368z" style="fill:var(--color1, #fff)"/>
    </symbol>
    <symbol id="icon-Facebook" viewBox="0 0 31 32">
      <path fill="#fff" d="M28.16 16.51c0-7.112-5.731-12.878-12.8-12.878S2.56 9.398 2.56 16.51c0 6.428 4.681 11.756 10.8 12.722v-8.999h-3.25V16.51h3.25v-2.837c0-3.228 1.911-5.01 4.835-5.01 1.401 0 2.865.252 2.865.252v3.169h-1.614c-1.59 0-2.086.993-2.086 2.011v2.416h3.55l-.567 3.723H17.36v8.999c6.119-.966 10.8-6.294 10.8-12.722z" style="fill:var(--color1, #fff)"/>
    </symbol>
    <symbol id="icon-Instagram" viewBox="0 0 31 32">
      <path fill="#fff" d="M20.48 4.912H10.24a6.4 6.4 0 0 0-6.4 6.4v10.24a6.4 6.4 0 0 0 6.4 6.4h10.24a6.4 6.4 0 0 0 6.4-6.4v-10.24a6.4 6.4 0 0 0-6.4-6.4zm4.16 16.64a4.172 4.172 0 0 1-4.16 4.16H10.24a4.172 4.172 0 0 1-4.16-4.16v-10.24a4.172 4.172 0 0 1 4.16-4.16h10.24a4.172 4.172 0 0 1 4.16 4.16v10.24zm-3.2-9.92a1.28 1.28 0 1 0 0-2.56 1.28 1.28 0 0 0 0 2.56zm-6.08-.96a5.76 5.76 0 1 0 5.76 5.76 5.749 5.749 0 0 0-5.76-5.76zm-3.52 5.76a3.52 3.52 0 1 0 7.04 0 3.52 3.52 0 0 0-7.04 0z" style="fill:var(--color1, #fff)"/>
    </symbol>
    <symbol id="icon-logo-icon" viewBox="0 0 32 32">
      <path fill="#fff" d="M17.284 3.195c.38-.041.82.039 1.185.142.827.235 1.5.738 1.899 1.456.415.736.494 1.596.221 2.387-.347.976-1.092 1.466-2.022 1.917l.01 2.845c.665.189 1.311.403 1.915.728a5.591 5.591 0 0 1 2.733 3.45 5.531 5.531 0 0 1-.665 4.452 5.645 5.645 0 0 1-3.495 2.461c-1.935.451-3.576-.037-5.24-.959-.735.732-1.462 1.473-2.179 2.222.32.704.427 1.444.214 2.192-.208.732-.758 1.359-1.462 1.73-.789.416-1.688.492-2.553.261-.858-.229-1.58-.724-1.999-1.469-.413-.732-.448-1.589-.18-2.371.305-.888.925-1.435 1.797-1.841.939-.342 1.715-.23 2.631.078.763-.748 1.481-1.534 2.252-2.275-.847-1.548-1.122-2.866-.681-4.572-.959-.417-1.883-.903-2.843-1.321a3.43 3.43 0 0 1-1.875.954 3.617 3.617 0 0 1-2.525-.566 2.967 2.967 0 0 1-1.301-2.033c-.119-.791.105-1.662.648-2.286.56-.644 1.43-1.032 2.308-1.117a3.427 3.427 0 0 1 2.392.681c.855.667 1.101 1.496 1.205 2.484.91.52 1.951.92 2.899 1.384 1.233-1.358 2.134-1.787 3.931-2.303l.002-2.824a4.27 4.27 0 0 1-.923-.458c-.709-.489-1.175-1.225-1.29-2.04a2.916 2.916 0 0 1 .682-2.269c.594-.694 1.387-1.01 2.307-1.123zm3.963 14.047c-.183-1.943-2.014-3.383-4.1-3.225-2.104.16-3.667 1.885-3.483 3.844s2.046 3.406 4.148 3.221c2.084-.183 3.618-1.898 3.435-3.841zm6.029-4.718c.089-.004.175-.005.264.007.277.037.549.162.702.388.162.24.184.56.206.838.11 1.377.028 2.809.028 4.19 0 1.128.134 2.658-.091 3.745-.071.341-.314.505-.605.69-.111.013-.227.027-.339.021a.944.944 0 0 1-.648-.294c-.16-.176-.155-.529-.169-.749-.102-1.584-.016-3.218-.014-4.806.001-.903-.132-2.63.071-3.436.073-.288.352-.439.595-.593zm-2.55 2.212c.3.051.565.156.74.399.269.374.277 4.041.142 4.564-.074.286-.339.426-.591.563-.288-.016-.668-.04-.86-.273-.287-.346-.263-4.243-.1-4.732.095-.284.408-.404.67-.522z" style="fill:var(--color1, #fff)"/>
    </symbol>
    <symbol id="icon-transparent-triangle" viewBox="0 0 32 32">
      <path fill="#fff" d="M7.381 29.181a1.343 1.343 0 0 0 1.378-.085l17.333-12a1.33 1.33 0 0 0 .422-1.715 1.327 1.327 0 0 0-.422-.477l-17.333-12a1.327 1.327 0 0 0-2.092 1.095v24a1.333 1.333 0 0 0 .714 1.181zM9.333 6.545 22.99 16 9.333 25.455V6.546z" style="fill:var(--color1, #fff)"/>
    </symbol>
    <symbol id="icon-triangle-white" viewBox="0 0 17 32">
      <path fill="#fff" d="m0 31.878 17.067-14.933L0 2.012v29.867z" style="fill:var(--color1, #fff)"/>
    </symbol>
    <symbol id="icon-Youtube" viewBox="0 0 31 32">
      <path fill="#fff" d="M27.639 9.981a3.199 3.199 0 0 0-2.255-2.261c-2.004-.55-10.024-.559-10.024-.559s-8.018-.009-10.024.517a3.272 3.272 0 0 0-2.261 2.275c-.529 2.004-.534 6.162-.534 6.162s-.005 4.178.52 6.162a3.204 3.204 0 0 0 2.257 2.259c2.025.55 10.022.559 10.022.559s8.019.009 10.024-.516a3.221 3.221 0 0 0 2.262-2.257c.53-2.003.534-6.159.534-6.159s.026-4.179-.521-6.184zm-14.844 9.987.006-7.68 6.665 3.846-6.671 3.834z" style="fill:var(--color1, #fff)"/>
    </symbol>
    <symbol id="icon-close-icon" viewBox="0 0 32 32">
      <path d="M27.179 0.918l-11.315 11.312-11.312-11.312-3.771 3.771 11.312 11.312-11.312 11.312 3.771 3.771 11.312-11.312 11.315 11.312 3.771-3.771-11.312-11.312 11.312-11.312-3.771-3.771z"></path>
    </symbol>
    <symbol id="icon-burger-icon" viewBox="0 0 43 32">
      <path d="M0 0h42.667v5.333h-42.667v-5.333zM10.667 13.333h32v5.333h-32v-5.333zM24 26.667h18.667v5.333h-18.667v-5.333z"></path>
    </symbol>
    <symbol id="icon-logo-icon" viewBox="0 0 110 32">
      <path d="M16.403 0.143c0.434-0.050 0.936 0.047 1.354 0.174 0.945 0.288 1.714 0.904 2.169 1.784 0.474 0.902 0.564 1.958 0.252 2.927-0.397 1.196-1.248 1.798-2.31 2.351l0.012 3.489c0.759 0.232 1.498 0.494 2.187 0.893 1.585 0.918 2.669 2.467 3.123 4.23 0.48 1.848 0.208 3.812-0.759 5.46-0.887 1.493-2.3 2.596-3.993 3.018-2.211 0.553-4.087-0.046-5.987-1.175-0.84 0.898-1.67 1.806-2.489 2.724 0.366 0.864 0.488 1.771 0.245 2.689-0.237 0.897-0.866 1.666-1.67 2.121-0.901 0.51-1.928 0.602-2.916 0.32-0.981-0.281-1.805-0.888-2.284-1.8-0.472-0.897-0.511-1.949-0.206-2.907 0.348-1.089 1.056-1.759 2.052-2.257 1.072-0.419 1.959-0.281 3.006 0.096 0.872-0.917 1.692-1.881 2.573-2.79-0.968-1.898-1.281-3.515-0.778-5.606-1.095-0.511-2.152-1.107-3.248-1.619-0.586 0.61-1.302 1.028-2.143 1.169-1.003 0.169-2.060-0.105-2.884-0.693-0.817-0.592-1.354-1.494-1.486-2.494-0.135-0.969 0.12-2.037 0.741-2.802 0.64-0.789 1.634-1.266 2.637-1.371 0.986-0.096 1.969 0.205 2.733 0.836 0.976 0.818 1.259 1.835 1.377 3.046 1.039 0.637 2.229 1.128 3.311 1.697 1.409-1.665 2.439-2.191 4.492-2.824l0.001-3.463c-0.367-0.147-0.734-0.326-1.054-0.561-0.81-0.599-1.342-1.502-1.474-2.501-0.121-0.994 0.16-1.995 0.78-2.781 0.678-0.851 1.585-1.238 2.636-1.377zM20.93 17.368c-0.209-2.382-2.302-4.148-4.686-3.955-2.404 0.196-4.19 2.311-3.979 4.714s2.337 4.176 4.739 3.951c2.38-0.224 4.134-2.328 3.925-4.71z"></path>
      <path d="M102.108 11.958c0.708 0.001 1.416 0.010 2.124 0.028l-0.004 3.743c0.545-0.424 1.14-0.741 1.83-0.844 0.933-0.141 1.885 0.101 2.637 0.67 0.908 0.687 1.385 1.843 1.523 2.948 0.175 1.402-0.154 2.75-1.019 3.867-0.574 0.554-1.262 0.941-2.056 1.072-1.165 0.191-2.089-0.216-2.998-0.894l-0.004 0.818-2.033-0.004-0.001-11.403zM105.748 16.862c-0.631 0.21-1.070 0.509-1.378 1.117-0.342 0.675-0.365 1.509-0.098 2.212 0.203 0.538 0.585 1.004 1.117 1.244 0.386 0.175 0.749 0.18 1.165 0.155 0.659-0.249 1.102-0.569 1.401-1.229 0.312-0.689 0.307-1.52 0.011-2.214-0.227-0.533-0.632-0.963-1.177-1.174-0.341-0.131-0.682-0.149-1.042-0.111z"></path>
      <path d="M41.271 11.936c1.246 3.84 2.84 7.576 4.056 11.426l-2.296 0.002c-0.269-0.822-0.529-1.752-0.939-2.512-0.268-0.115-0.586-0.076-0.873-0.073-1.108 0.011-2.215 0.008-3.323-0.011-0.348 0.848-0.628 1.721-0.903 2.595l-2.339-0.002c1.221-3.833 2.677-7.617 3.996-11.42 0.872 0.019 1.749-0.002 2.622-0.005zM39.962 14.775c-0.483 1.374-0.934 2.768-1.464 4.125l1.681-0.001 1.307-0.014c-0.184-0.517-1.25-3.881-1.524-4.11z"></path>
      <path d="M89.685 11.961l2.196 0.013c-0.030 2.647-0.007 5.298-0.007 7.945-0.001 1.093 0.11 2.287-0.012 3.365l-0.121 0.083h-2.058l-0.004-4.889c-1.645-0.046-3.303-0.005-4.949-0.003l0.001 4.894-2.209-0.004 0.009-11.401 2.201 0.005 0.001 4.662h4.957l-0.003-4.67z"></path>
      <path d="M93.202 15.121c0.729 0.021 1.46 0.013 2.188 0.017-0.009 1.165-0.193 4.384 0.089 5.347 0.111 0.38 0.333 0.728 0.693 0.913 0.541 0.278 1.090 0.117 1.628-0.072 0.238-0.266 0.443-0.515 0.561-0.859 0.386-1.123 0.18-4.006 0.174-5.343 0.694 0.019 1.391 0.004 2.085 0-0.016 0.8-0.003 1.603-0.004 2.404l0.011 5.834c-0.683 0.010-1.365 0.005-2.047-0.015l-0.063-0.074c0.010-0.173 0.013-0.314-0.018-0.487-0.639 0.277-1.209 0.697-1.936 0.712-0.843 0.017-1.758-0.245-2.363-0.851-0.459-0.459-0.739-1.076-0.883-1.703-0.31-1.348-0.127-4.332-0.113-5.824z"></path>
      <path d="M63.686 14.891c1.089-0.085 2.224-0.008 3.104 0.725 0.617 0.514 0.816 1.13 0.883 1.897l-1.968-0.002c-0.113-0.21-0.227-0.454-0.404-0.619-0.284-0.262-0.694-0.398-1.078-0.377-0.298 0.016-0.679 0.135-0.865 0.387-0.113 0.154-0.175 0.311-0.132 0.503 0.224 1.009 2.79 0.884 3.607 1.419 0.52 0.341 0.919 0.951 1.034 1.56 0.115 0.623-0.033 1.266-0.409 1.775-0.627 0.865-1.593 1.175-2.599 1.329-0.931 0.056-2.011-0.194-2.756-0.761-0.699-0.532-0.95-1.185-1.045-2.025 0.663 0.002 1.326-0.005 1.989-0.018 0.039 0.125 0.082 0.246 0.145 0.361 0.289 0.533 0.865 0.651 1.4 0.808 0.353-0.081 0.831-0.172 1.082-0.457 0.151-0.172 0.204-0.471 0.14-0.691-0.245-0.843-2.703-0.943-3.556-1.468-0.505-0.311-0.876-0.764-1.011-1.349-0.121-0.53-0.075-1.125 0.223-1.59 0.538-0.84 1.28-1.185 2.216-1.408z"></path>
      <path d="M76.929 14.889c0.62-0.050 1.227-0.047 1.831 0.117 0.697 0.189 1.438 0.578 1.79 1.239 0.17 0.317 0.3 0.886 0.186 1.237-0.565 0.122-1.255 0.040-1.835 0.033-0.086-0.287-0.158-0.509-0.391-0.707-0.295-0.247-0.679-0.364-1.062-0.322-0.3 0.031-0.685 0.178-0.852 0.447-0.1 0.16-0.141 0.325-0.078 0.509 0.363 1.068 2.535 0.814 3.38 1.297 0.538 0.308 0.988 0.848 1.141 1.454 0.164 0.65 0.056 1.372-0.319 1.931-0.56 0.835-1.449 1.149-2.388 1.331-0.921 0.114-1.989-0.082-2.759-0.613-0.791-0.545-1.028-1.229-1.206-2.123l1.973-0.015c0.12 0.302 0.229 0.537 0.485 0.746 0.341 0.279 0.745 0.406 1.184 0.347 0.341-0.045 0.676-0.202 0.88-0.487 0.133-0.187 0.2-0.414 0.136-0.642-0.247-0.878-2.426-0.823-3.29-1.288-0.584-0.315-1.046-0.838-1.231-1.481-0.157-0.544-0.091-1.11 0.196-1.599 0.477-0.81 1.353-1.206 2.231-1.409z"></path>
      <path d="M52.641 12.857c0.655 0.023 1.315 0.009 1.97 0.011-0.007 0.74 0.004 1.48 0.032 2.219l1.944 0.001-0.004 1.694-1.851-0.001c0.001 1.066-0.243 3.817 0.246 4.641 0.382 0.301 1.145 0.189 1.609 0.183l-0.007 1.404c0.004 0.145 0.004 0.218-0.070 0.344-0.259 0.124-0.524 0.152-0.81 0.154-0.752 0.007-1.791-0.129-2.331-0.693-1.086-1.131-0.739-4.457-0.734-6.035l-1.254 0.002 0.004-1.698 1.249 0.008 0.007-2.236z"></path>
      <path d="M69.539 12.848l1.934 0.011c-0.015 0.741 0.016 1.485 0.030 2.226l1.975-0.004-0.003 1.702-1.859-0.001c0.023 1.015-0.226 3.85 0.234 4.617 0.494 0.295 1.113 0.216 1.668 0.215-0.007 0.489 0.003 0.979 0.005 1.469l-0.023 0.186c-0.191 0.202-0.486 0.194-0.747 0.2-0.794 0.019-1.891-0.107-2.467-0.71-1.075-1.126-0.74-4.405-0.731-5.978l-1.323 0.001c-0.017-0.564-0.010-1.129-0.015-1.692l1.318 0.007 0.004-2.249z"></path>
      <path d="M27.82 11.582c0.102-0.005 0.2-0.007 0.302 0.008 0.316 0.046 0.628 0.198 0.802 0.476 0.185 0.294 0.21 0.687 0.235 1.028 0.125 1.688 0.032 3.444 0.032 5.138-0 1.384 0.153 3.26-0.104 4.592-0.081 0.419-0.358 0.619-0.691 0.846-0.127 0.015-0.259 0.033-0.387 0.026-0.285-0.016-0.556-0.143-0.74-0.361-0.183-0.216-0.177-0.648-0.193-0.919-0.116-1.942-0.018-3.946-0.016-5.893 0.001-1.107-0.151-3.225 0.082-4.213 0.083-0.353 0.402-0.539 0.68-0.727z"></path>
      <path d="M50.244 15.058l0.278-0.003c0.329 0.368 0.166 1.535 0.155 2.018-0.696-0.007-1.354-0.035-1.899 0.471-1.023 0.949-0.678 4.425-0.688 5.82-0.548-0.005-1.617 0.195-2.035-0.154l-0.022-0.346c0.010-2.586-0.055-5.169-0.038-7.754 0.664 0.021 1.33 0.007 1.994 0.003l-0.023 1.142c0.123-0.177 0.245-0.366 0.388-0.527 0.503-0.568 1.186-0.619 1.891-0.669z"></path>
      <path d="M57.795 15.092l2.086 0.001 0.005 8.275-2.11-0.003 0.019-8.273z"></path>
      <path d="M24.906 14.293c0.343 0.063 0.645 0.192 0.845 0.489 0.308 0.459 0.316 4.955 0.162 5.596-0.084 0.351-0.388 0.522-0.675 0.691-0.33-0.020-0.763-0.049-0.983-0.335-0.327-0.425-0.3-5.203-0.114-5.802 0.108-0.348 0.466-0.495 0.765-0.639z"></path>
      <path d="M58.7 11.683c0.62-0.073 1.185 0.36 1.276 0.978s-0.325 1.195-0.939 1.304c-0.414 0.073-0.835-0.084-1.099-0.411s-0.33-0.771-0.171-1.161c0.159-0.389 0.516-0.661 0.933-0.71z"></path>
    </symbol>
    <symbol id="icon-logo" viewBox="0 0 110 32">
      <path d="M16.403 0.143c0.434-0.050 0.936 0.047 1.354 0.174 0.945 0.288 1.714 0.904 2.169 1.784 0.474 0.902 0.564 1.958 0.252 2.927-0.397 1.196-1.248 1.798-2.31 2.351l0.012 3.489c0.759 0.232 1.498 0.494 2.187 0.893 1.585 0.918 2.669 2.467 3.123 4.23 0.48 1.848 0.208 3.812-0.759 5.46-0.887 1.493-2.3 2.596-3.993 3.018-2.211 0.553-4.087-0.046-5.987-1.175-0.84 0.898-1.67 1.806-2.489 2.724 0.366 0.864 0.488 1.771 0.245 2.689-0.237 0.897-0.866 1.666-1.67 2.121-0.901 0.51-1.928 0.602-2.916 0.32-0.981-0.281-1.805-0.888-2.284-1.8-0.472-0.897-0.511-1.949-0.206-2.907 0.348-1.089 1.056-1.759 2.052-2.257 1.072-0.419 1.959-0.281 3.006 0.096 0.872-0.917 1.692-1.881 2.573-2.79-0.968-1.898-1.281-3.515-0.778-5.606-1.095-0.511-2.152-1.107-3.248-1.619-0.586 0.61-1.302 1.028-2.143 1.169-1.003 0.169-2.060-0.105-2.884-0.693-0.817-0.592-1.354-1.494-1.486-2.494-0.135-0.969 0.12-2.037 0.741-2.802 0.64-0.789 1.634-1.266 2.637-1.371 0.986-0.096 1.969 0.205 2.733 0.836 0.976 0.818 1.259 1.835 1.377 3.046 1.039 0.637 2.229 1.128 3.311 1.697 1.409-1.665 2.439-2.191 4.492-2.824l0.001-3.463c-0.367-0.147-0.734-0.326-1.054-0.561-0.81-0.599-1.342-1.502-1.474-2.501-0.121-0.994 0.16-1.995 0.78-2.781 0.678-0.851 1.585-1.238 2.636-1.377zM20.93 17.368c-0.209-2.382-2.302-4.148-4.686-3.955-2.404 0.196-4.19 2.311-3.979 4.714s2.337 4.176 4.739 3.951c2.38-0.224 4.134-2.328 3.925-4.71z"></path>
      <path d="M102.108 11.958c0.708 0.001 1.416 0.010 2.124 0.028l-0.004 3.743c0.545-0.424 1.14-0.741 1.83-0.844 0.933-0.141 1.885 0.101 2.637 0.67 0.908 0.687 1.385 1.843 1.523 2.948 0.175 1.402-0.154 2.75-1.019 3.867-0.574 0.554-1.262 0.941-2.056 1.072-1.165 0.191-2.089-0.216-2.998-0.894l-0.004 0.818-2.033-0.004-0.001-11.403zM105.748 16.862c-0.631 0.21-1.070 0.509-1.378 1.117-0.342 0.675-0.365 1.509-0.098 2.212 0.203 0.538 0.585 1.004 1.117 1.244 0.386 0.175 0.749 0.18 1.165 0.155 0.659-0.249 1.102-0.569 1.401-1.229 0.312-0.689 0.307-1.52 0.011-2.214-0.227-0.533-0.632-0.963-1.177-1.174-0.341-0.131-0.682-0.149-1.042-0.111z"></path>
      <path d="M41.271 11.936c1.246 3.84 2.84 7.576 4.056 11.426l-2.296 0.002c-0.269-0.822-0.529-1.752-0.939-2.512-0.268-0.115-0.586-0.076-0.873-0.073-1.108 0.011-2.215 0.008-3.323-0.011-0.348 0.848-0.628 1.721-0.903 2.595l-2.339-0.002c1.221-3.833 2.677-7.617 3.996-11.42 0.872 0.019 1.749-0.002 2.622-0.005zM39.962 14.775c-0.483 1.374-0.934 2.768-1.464 4.125l1.681-0.001 1.307-0.014c-0.184-0.517-1.25-3.881-1.524-4.11z"></path>
      <path d="M89.685 11.961l2.196 0.013c-0.030 2.647-0.007 5.298-0.007 7.945-0.001 1.093 0.11 2.287-0.012 3.365l-0.121 0.083h-2.058l-0.004-4.889c-1.645-0.046-3.303-0.005-4.949-0.003l0.001 4.894-2.209-0.004 0.009-11.401 2.201 0.005 0.001 4.662h4.957l-0.003-4.67z"></path>
      <path d="M93.202 15.121c0.729 0.021 1.46 0.013 2.188 0.017-0.009 1.165-0.193 4.384 0.089 5.347 0.111 0.38 0.333 0.728 0.693 0.913 0.541 0.278 1.090 0.117 1.628-0.072 0.238-0.266 0.443-0.515 0.561-0.859 0.386-1.123 0.18-4.006 0.174-5.343 0.694 0.019 1.391 0.004 2.085 0-0.016 0.8-0.003 1.603-0.004 2.404l0.011 5.834c-0.683 0.010-1.365 0.005-2.047-0.015l-0.063-0.074c0.010-0.173 0.013-0.314-0.018-0.487-0.639 0.277-1.209 0.697-1.936 0.712-0.843 0.017-1.758-0.245-2.363-0.851-0.459-0.459-0.739-1.076-0.883-1.703-0.31-1.348-0.127-4.332-0.113-5.824z"></path>
      <path d="M63.686 14.891c1.089-0.085 2.224-0.008 3.104 0.725 0.617 0.514 0.816 1.13 0.883 1.897l-1.968-0.002c-0.113-0.21-0.227-0.454-0.404-0.619-0.284-0.262-0.694-0.398-1.078-0.377-0.298 0.016-0.679 0.135-0.865 0.387-0.113 0.154-0.175 0.311-0.132 0.503 0.224 1.009 2.79 0.884 3.607 1.419 0.52 0.341 0.919 0.951 1.034 1.56 0.115 0.623-0.033 1.266-0.409 1.775-0.627 0.865-1.593 1.175-2.599 1.329-0.931 0.056-2.011-0.194-2.756-0.761-0.699-0.532-0.95-1.185-1.045-2.025 0.663 0.002 1.326-0.005 1.989-0.018 0.039 0.125 0.082 0.246 0.145 0.361 0.289 0.533 0.865 0.651 1.4 0.808 0.353-0.081 0.831-0.172 1.082-0.457 0.151-0.172 0.204-0.471 0.14-0.691-0.245-0.843-2.703-0.943-3.556-1.468-0.505-0.311-0.876-0.764-1.011-1.349-0.121-0.53-0.075-1.125 0.223-1.59 0.538-0.84 1.28-1.185 2.216-1.408z"></path>
      <path d="M76.929 14.889c0.62-0.050 1.227-0.047 1.831 0.117 0.697 0.189 1.438 0.578 1.79 1.239 0.17 0.317 0.3 0.886 0.186 1.237-0.565 0.122-1.255 0.040-1.835 0.033-0.086-0.287-0.158-0.509-0.391-0.707-0.295-0.247-0.679-0.364-1.062-0.322-0.3 0.031-0.685 0.178-0.852 0.447-0.1 0.16-0.141 0.325-0.078 0.509 0.363 1.068 2.535 0.814 3.38 1.297 0.538 0.308 0.988 0.848 1.141 1.454 0.164 0.65 0.056 1.372-0.319 1.931-0.56 0.835-1.449 1.149-2.388 1.331-0.921 0.114-1.989-0.082-2.759-0.613-0.791-0.545-1.028-1.229-1.206-2.123l1.973-0.015c0.12 0.302 0.229 0.537 0.485 0.746 0.341 0.279 0.745 0.406 1.184 0.347 0.341-0.045 0.676-0.202 0.88-0.487 0.133-0.187 0.2-0.414 0.136-0.642-0.247-0.878-2.426-0.823-3.29-1.288-0.584-0.315-1.046-0.838-1.231-1.481-0.157-0.544-0.091-1.11 0.196-1.599 0.477-0.81 1.353-1.206 2.231-1.409z"></path>
      <path d="M52.641 12.857c0.655 0.023 1.315 0.009 1.97 0.011-0.007 0.74 0.004 1.48 0.032 2.219l1.944 0.001-0.004 1.694-1.851-0.001c0.001 1.066-0.243 3.817 0.246 4.641 0.382 0.301 1.145 0.189 1.609 0.183l-0.007 1.404c0.004 0.145 0.004 0.218-0.070 0.344-0.259 0.124-0.524 0.152-0.81 0.154-0.752 0.007-1.791-0.129-2.331-0.693-1.086-1.131-0.739-4.457-0.734-6.035l-1.254 0.002 0.004-1.698 1.249 0.008 0.007-2.236z"></path>
      <path d="M69.539 12.848l1.934 0.011c-0.015 0.741 0.016 1.485 0.030 2.226l1.975-0.004-0.003 1.702-1.859-0.001c0.023 1.015-0.226 3.85 0.234 4.617 0.494 0.295 1.113 0.216 1.668 0.215-0.007 0.489 0.003 0.979 0.005 1.469l-0.023 0.186c-0.191 0.202-0.486 0.194-0.747 0.2-0.794 0.019-1.891-0.107-2.467-0.71-1.075-1.126-0.74-4.405-0.731-5.978l-1.323 0.001c-0.017-0.564-0.010-1.129-0.015-1.692l1.318 0.007 0.004-2.249z"></path>
      <path d="M27.82 11.582c0.102-0.005 0.2-0.007 0.302 0.008 0.316 0.046 0.628 0.198 0.802 0.476 0.185 0.294 0.21 0.687 0.235 1.028 0.125 1.688 0.032 3.444 0.032 5.138-0 1.384 0.153 3.26-0.104 4.592-0.081 0.419-0.358 0.619-0.691 0.846-0.127 0.015-0.259 0.033-0.387 0.026-0.285-0.016-0.556-0.143-0.74-0.361-0.183-0.216-0.177-0.648-0.193-0.919-0.116-1.942-0.018-3.946-0.016-5.893 0.001-1.107-0.151-3.225 0.082-4.213 0.083-0.353 0.402-0.539 0.68-0.727z"></path>
      <path d="M50.244 15.058l0.278-0.003c0.329 0.368 0.166 1.535 0.155 2.018-0.696-0.007-1.354-0.035-1.899 0.471-1.023 0.949-0.678 4.425-0.688 5.82-0.548-0.005-1.617 0.195-2.035-0.154l-0.022-0.346c0.010-2.586-0.055-5.169-0.038-7.754 0.664 0.021 1.33 0.007 1.994 0.003l-0.023 1.142c0.123-0.177 0.245-0.366 0.388-0.527 0.503-0.568 1.186-0.619 1.891-0.669z"></path>
      <path d="M57.795 15.092l2.086 0.001 0.005 8.275-2.11-0.003 0.019-8.273z"></path>
      <path d="M24.906 14.293c0.343 0.063 0.645 0.192 0.845 0.489 0.308 0.459 0.316 4.955 0.162 5.596-0.084 0.351-0.388 0.522-0.675 0.691-0.33-0.020-0.763-0.049-0.983-0.335-0.327-0.425-0.3-5.203-0.114-5.802 0.108-0.348 0.466-0.495 0.765-0.639z"></path>
      <path d="M58.7 11.683c0.62-0.073 1.185 0.36 1.276 0.978s-0.325 1.195-0.939 1.304c-0.414 0.073-0.835-0.084-1.099-0.411s-0.33-0.771-0.171-1.161c0.159-0.389 0.516-0.661 0.933-0.71z"></path>
    </symbol>
    <symbol id="icon-Logo-for-Heder" viewBox="0 0 110 32">
      <path d="M16.403 0.143c0.434-0.050 0.936 0.047 1.354 0.174 0.945 0.288 1.714 0.904 2.169 1.784 0.474 0.902 0.564 1.958 0.252 2.927-0.397 1.196-1.248 1.798-2.31 2.351l0.012 3.489c0.759 0.232 1.498 0.494 2.187 0.893 1.585 0.918 2.669 2.467 3.123 4.23 0.48 1.848 0.208 3.812-0.759 5.46-0.887 1.493-2.3 2.596-3.993 3.018-2.211 0.553-4.087-0.046-5.987-1.175-0.84 0.898-1.67 1.806-2.489 2.724 0.366 0.864 0.488 1.771 0.245 2.689-0.237 0.897-0.866 1.666-1.67 2.121-0.901 0.51-1.928 0.602-2.916 0.32-0.981-0.281-1.805-0.888-2.284-1.8-0.472-0.897-0.511-1.949-0.206-2.907 0.348-1.089 1.056-1.759 2.052-2.257 1.072-0.419 1.959-0.281 3.006 0.096 0.872-0.917 1.692-1.881 2.573-2.79-0.968-1.898-1.281-3.515-0.778-5.606-1.095-0.511-2.152-1.107-3.248-1.619-0.586 0.61-1.302 1.028-2.143 1.169-1.003 0.169-2.060-0.105-2.884-0.693-0.817-0.592-1.354-1.494-1.486-2.494-0.135-0.969 0.12-2.037 0.741-2.802 0.64-0.789 1.634-1.266 2.637-1.371 0.986-0.096 1.969 0.205 2.733 0.836 0.976 0.818 1.259 1.835 1.377 3.046 1.039 0.637 2.229 1.128 3.311 1.697 1.409-1.665 2.439-2.191 4.492-2.824l0.001-3.463c-0.367-0.147-0.734-0.326-1.054-0.561-0.81-0.599-1.342-1.502-1.474-2.501-0.121-0.994 0.16-1.995 0.78-2.781 0.678-0.851 1.585-1.238 2.636-1.377zM20.93 17.368c-0.209-2.382-2.302-4.148-4.686-3.955-2.404 0.196-4.19 2.311-3.979 4.714s2.337 4.176 4.739 3.951c2.38-0.224 4.134-2.328 3.925-4.71z"></path>
      <path d="M102.108 11.958c0.708 0.001 1.416 0.010 2.124 0.028l-0.004 3.743c0.545-0.424 1.14-0.741 1.83-0.844 0.933-0.141 1.885 0.101 2.637 0.67 0.908 0.687 1.385 1.843 1.523 2.948 0.175 1.402-0.154 2.75-1.019 3.867-0.574 0.554-1.262 0.941-2.056 1.072-1.165 0.191-2.089-0.216-2.998-0.894l-0.004 0.818-2.033-0.004-0.001-11.403zM105.748 16.862c-0.631 0.21-1.070 0.509-1.378 1.117-0.342 0.675-0.365 1.509-0.098 2.212 0.203 0.538 0.585 1.004 1.117 1.244 0.386 0.175 0.749 0.18 1.165 0.155 0.659-0.249 1.102-0.569 1.401-1.229 0.312-0.689 0.307-1.52 0.011-2.214-0.227-0.533-0.632-0.963-1.177-1.174-0.341-0.131-0.682-0.149-1.042-0.111z"></path>
      <path d="M41.271 11.936c1.246 3.84 2.84 7.576 4.056 11.426l-2.296 0.002c-0.269-0.822-0.529-1.752-0.939-2.512-0.268-0.115-0.586-0.076-0.873-0.073-1.108 0.011-2.215 0.008-3.323-0.011-0.348 0.848-0.628 1.721-0.903 2.595l-2.339-0.002c1.221-3.833 2.677-7.617 3.996-11.42 0.872 0.019 1.749-0.002 2.622-0.005zM39.962 14.775c-0.483 1.374-0.934 2.768-1.464 4.125l1.681-0.001 1.307-0.014c-0.184-0.517-1.25-3.881-1.524-4.11z"></path>
      <path d="M89.685 11.961l2.196 0.013c-0.030 2.647-0.007 5.298-0.007 7.945-0.001 1.093 0.11 2.287-0.012 3.365l-0.121 0.083h-2.058l-0.004-4.889c-1.645-0.046-3.303-0.005-4.949-0.003l0.001 4.894-2.209-0.004 0.009-11.401 2.201 0.005 0.001 4.662h4.957l-0.003-4.67z"></path>
      <path d="M93.202 15.121c0.729 0.021 1.46 0.013 2.188 0.017-0.009 1.165-0.193 4.384 0.089 5.347 0.111 0.38 0.333 0.728 0.693 0.913 0.541 0.278 1.090 0.117 1.628-0.072 0.238-0.266 0.443-0.515 0.561-0.859 0.386-1.123 0.18-4.006 0.174-5.343 0.694 0.019 1.391 0.004 2.085 0-0.016 0.8-0.003 1.603-0.004 2.404l0.011 5.834c-0.683 0.010-1.365 0.005-2.047-0.015l-0.063-0.074c0.010-0.173 0.013-0.314-0.018-0.487-0.639 0.277-1.209 0.697-1.936 0.712-0.843 0.017-1.758-0.245-2.363-0.851-0.459-0.459-0.739-1.076-0.883-1.703-0.31-1.348-0.127-4.332-0.113-5.824z"></path>
      <path d="M63.686 14.891c1.089-0.085 2.224-0.008 3.104 0.725 0.617 0.514 0.816 1.13 0.883 1.897l-1.968-0.002c-0.113-0.21-0.227-0.454-0.404-0.619-0.284-0.262-0.694-0.398-1.078-0.377-0.298 0.016-0.679 0.135-0.865 0.387-0.113 0.154-0.175 0.311-0.132 0.503 0.224 1.009 2.79 0.884 3.607 1.419 0.52 0.341 0.919 0.951 1.034 1.56 0.115 0.623-0.033 1.266-0.409 1.775-0.627 0.865-1.593 1.175-2.599 1.329-0.931 0.056-2.011-0.194-2.756-0.761-0.699-0.532-0.95-1.185-1.045-2.025 0.663 0.002 1.326-0.005 1.989-0.018 0.039 0.125 0.082 0.246 0.145 0.361 0.289 0.533 0.865 0.651 1.4 0.808 0.353-0.081 0.831-0.172 1.082-0.457 0.151-0.172 0.204-0.471 0.14-0.691-0.245-0.843-2.703-0.943-3.556-1.468-0.505-0.311-0.876-0.764-1.011-1.349-0.121-0.53-0.075-1.125 0.223-1.59 0.538-0.84 1.28-1.185 2.216-1.408z"></path>
      <path d="M76.929 14.889c0.62-0.050 1.227-0.047 1.831 0.117 0.697 0.189 1.438 0.578 1.79 1.239 0.17 0.317 0.3 0.886 0.186 1.237-0.565 0.122-1.255 0.040-1.835 0.033-0.086-0.287-0.158-0.509-0.391-0.707-0.295-0.247-0.679-0.364-1.062-0.322-0.3 0.031-0.685 0.178-0.852 0.447-0.1 0.16-0.141 0.325-0.078 0.509 0.363 1.068 2.535 0.814 3.38 1.297 0.538 0.308 0.988 0.848 1.141 1.454 0.164 0.65 0.056 1.372-0.319 1.931-0.56 0.835-1.449 1.149-2.388 1.331-0.921 0.114-1.989-0.082-2.759-0.613-0.791-0.545-1.028-1.229-1.206-2.123l1.973-0.015c0.12 0.302 0.229 0.537 0.485 0.746 0.341 0.279 0.745 0.406 1.184 0.347 0.341-0.045 0.676-0.202 0.88-0.487 0.133-0.187 0.2-0.414 0.136-0.642-0.247-0.878-2.426-0.823-3.29-1.288-0.584-0.315-1.046-0.838-1.231-1.481-0.157-0.544-0.091-1.11 0.196-1.599 0.477-0.81 1.353-1.206 2.231-1.409z"></path>
      <path d="M52.641 12.857c0.655 0.023 1.315 0.009 1.97 0.011-0.007 0.74 0.004 1.48 0.032 2.219l1.944 0.001-0.004 1.694-1.851-0.001c0.001 1.066-0.243 3.817 0.246 4.641 0.382 0.301 1.145 0.189 1.609 0.183l-0.007 1.404c0.004 0.145 0.004 0.218-0.070 0.344-0.259 0.124-0.524 0.152-0.81 0.154-0.752 0.007-1.791-0.129-2.331-0.693-1.086-1.131-0.739-4.457-0.734-6.035l-1.254 0.002 0.004-1.698 1.249 0.008 0.007-2.236z"></path>
      <path d="M69.539 12.848l1.934 0.011c-0.015 0.741 0.016 1.485 0.030 2.226l1.975-0.004-0.003 1.702-1.859-0.001c0.023 1.015-0.226 3.85 0.234 4.617 0.494 0.295 1.113 0.216 1.668 0.215-0.007 0.489 0.003 0.979 0.005 1.469l-0.023 0.186c-0.191 0.202-0.486 0.194-0.747 0.2-0.794 0.019-1.891-0.107-2.467-0.71-1.075-1.126-0.74-4.405-0.731-5.978l-1.323 0.001c-0.017-0.564-0.010-1.129-0.015-1.692l1.318 0.007 0.004-2.249z"></path>
      <path d="M27.82 11.582c0.102-0.005 0.2-0.007 0.302 0.008 0.316 0.046 0.628 0.198 0.802 0.476 0.185 0.294 0.21 0.687 0.235 1.028 0.125 1.688 0.032 3.444 0.032 5.138-0 1.384 0.153 3.26-0.104 4.592-0.081 0.419-0.358 0.619-0.691 0.846-0.127 0.015-0.259 0.033-0.387 0.026-0.285-0.016-0.556-0.143-0.74-0.361-0.183-0.216-0.177-0.648-0.193-0.919-0.116-1.942-0.018-3.946-0.016-5.893 0.001-1.107-0.151-3.225 0.082-4.213 0.083-0.353 0.402-0.539 0.68-0.727z"></path>
      <path d="M50.244 15.058l0.278-0.003c0.329 0.368 0.166 1.535 0.155 2.018-0.696-0.007-1.354-0.035-1.899 0.471-1.023 0.949-0.678 4.425-0.688 5.82-0.548-0.005-1.617 0.195-2.035-0.154l-0.022-0.346c0.010-2.586-0.055-5.169-0.038-7.754 0.664 0.021 1.33 0.007 1.994 0.003l-0.023 1.142c0.123-0.177 0.245-0.366 0.388-0.527 0.503-0.568 1.186-0.619 1.891-0.669z"></path>
      <path d="M57.795 15.092l2.086 0.001 0.005 8.275-2.11-0.003 0.019-8.273z"></path>
      <path d="M24.906 14.293c0.343 0.063 0.645 0.192 0.845 0.489 0.308 0.459 0.316 4.955 0.162 5.596-0.084 0.351-0.388 0.522-0.675 0.691-0.33-0.020-0.763-0.049-0.983-0.335-0.327-0.425-0.3-5.203-0.114-5.802 0.108-0.348 0.466-0.495 0.765-0.639z"></path>
      <path d="M58.7 11.683c0.62-0.073 1.185 0.36 1.276 0.978s-0.325 1.195-0.939 1.304c-0.414 0.073-0.835-0.084-1.099-0.411s-0.33-0.771-0.171-1.161c0.159-0.389 0.516-0.661 0.933-0.71z"></path>
    </symbol>
    <symbol id="icon-Content" viewBox="0 0 73 32">
      <path d="M13.471 6.854c0.259-0.030 0.558 0.028 0.807 0.104 0.563 0.172 1.022 0.539 1.293 1.064 0.282 0.538 0.336 1.167 0.15 1.745-0.236 0.713-0.744 1.072-1.377 1.401l0.007 2.080c0.453 0.138 0.893 0.294 1.304 0.533 0.945 0.548 1.591 1.471 1.862 2.522 0.286 1.102 0.124 2.273-0.453 3.255-0.529 0.89-1.371 1.547-2.38 1.799-1.318 0.329-2.436-0.027-3.569-0.701-0.501 0.535-0.995 1.077-1.484 1.624 0.218 0.515 0.291 1.056 0.146 1.603-0.142 0.535-0.516 0.993-0.996 1.264-0.537 0.304-1.15 0.359-1.739 0.191-0.585-0.167-1.076-0.529-1.362-1.073-0.281-0.535-0.305-1.162-0.123-1.733 0.207-0.649 0.63-1.049 1.224-1.346 0.639-0.25 1.168-0.168 1.792 0.057 0.52-0.547 1.009-1.121 1.534-1.663-0.577-1.131-0.764-2.095-0.464-3.342-0.653-0.305-1.283-0.66-1.936-0.965-0.349 0.364-0.776 0.613-1.278 0.697-0.598 0.101-1.228-0.063-1.719-0.413-0.487-0.353-0.807-0.891-0.886-1.487-0.081-0.578 0.072-1.215 0.442-1.671 0.382-0.47 0.974-0.755 1.572-0.817 0.588-0.057 1.174 0.122 1.629 0.498 0.582 0.488 0.75 1.094 0.821 1.816 0.619 0.38 1.329 0.672 1.974 1.011 0.84-0.993 1.454-1.306 2.678-1.683l0.001-2.064c-0.219-0.088-0.438-0.194-0.629-0.335-0.483-0.357-0.8-0.895-0.879-1.491-0.072-0.592 0.095-1.189 0.465-1.658 0.404-0.507 0.945-0.738 1.572-0.821zM16.17 17.123c-0.125-1.42-1.373-2.473-2.793-2.358-1.433 0.117-2.498 1.378-2.372 2.81s1.393 2.49 2.825 2.355c1.419-0.134 2.465-1.388 2.34-2.808z"></path>
      <path d="M64.564 13.898c0.422 0.001 0.844 0.006 1.266 0.017l-0.002 2.231c0.325-0.253 0.679-0.441 1.091-0.503 0.556-0.084 1.124 0.060 1.572 0.4 0.542 0.409 0.826 1.099 0.908 1.757 0.105 0.836-0.092 1.639-0.607 2.305-0.342 0.33-0.753 0.561-1.226 0.639-0.695 0.114-1.246-0.129-1.787-0.533l-0.002 0.487-1.212-0.002-0.001-6.798zM66.734 16.822c-0.376 0.125-0.638 0.304-0.822 0.666-0.204 0.402-0.218 0.899-0.058 1.319 0.121 0.321 0.349 0.599 0.666 0.742 0.23 0.104 0.447 0.107 0.695 0.093 0.393-0.149 0.657-0.339 0.835-0.733 0.186-0.411 0.183-0.906 0.007-1.32-0.135-0.318-0.377-0.574-0.702-0.7-0.203-0.078-0.407-0.089-0.621-0.066z"></path>
      <path d="M28.296 13.885c0.743 2.289 1.693 4.516 2.418 6.812l-1.369 0.001c-0.16-0.49-0.315-1.044-0.56-1.498-0.16-0.068-0.349-0.045-0.52-0.043-0.66 0.007-1.321 0.005-1.981-0.007-0.207 0.506-0.374 1.026-0.538 1.547l-1.394-0.001c0.728-2.285 1.596-4.541 2.382-6.808 0.52 0.011 1.043-0.001 1.563-0.003zM27.516 15.577c-0.288 0.819-0.557 1.65-0.873 2.459l1.002-0.001 0.779-0.008c-0.109-0.308-0.745-2.314-0.909-2.45z"></path>
      <path d="M57.158 13.9l1.309 0.008c-0.018 1.578-0.004 3.159-0.004 4.737-0 0.651 0.066 1.363-0.007 2.006l-0.072 0.049h-1.227l-0.003-2.914c-0.981-0.027-1.969-0.003-2.95-0.002l0 2.917-1.317-0.003 0.005-6.796 1.312 0.003 0.001 2.779h2.955l-0.002-2.784z"></path>
      <path d="M59.255 15.784c0.434 0.012 0.87 0.008 1.304 0.010-0.005 0.695-0.115 2.613 0.053 3.188 0.066 0.227 0.199 0.434 0.413 0.544 0.322 0.166 0.65 0.070 0.971-0.043 0.142-0.159 0.264-0.307 0.334-0.512 0.23-0.67 0.107-2.388 0.103-3.185 0.414 0.011 0.829 0.002 1.243 0-0.010 0.477-0.002 0.956-0.002 1.433l0.006 3.478c-0.407 0.006-0.814 0.003-1.22-0.009l-0.038-0.044c0.006-0.103 0.007-0.187-0.010-0.29-0.382 0.165-0.721 0.416-1.154 0.424-0.503 0.010-1.048-0.146-1.409-0.508-0.274-0.274-0.441-0.642-0.526-1.015-0.185-0.803-0.076-2.583-0.068-3.472z"></path>
      <path d="M41.659 15.647c0.649-0.051 1.326-0.005 1.85 0.432 0.368 0.306 0.487 0.674 0.526 1.131l-1.173-0.001c-0.068-0.125-0.135-0.271-0.241-0.369-0.169-0.156-0.414-0.237-0.643-0.225-0.178 0.010-0.405 0.081-0.515 0.231-0.067 0.091-0.104 0.186-0.078 0.3 0.133 0.602 1.663 0.527 2.15 0.846 0.31 0.203 0.548 0.567 0.617 0.93 0.069 0.371-0.020 0.755-0.244 1.058-0.374 0.515-0.95 0.701-1.549 0.793-0.555 0.034-1.199-0.115-1.643-0.454-0.416-0.317-0.566-0.706-0.623-1.207 0.395 0.001 0.791-0.003 1.186-0.011 0.023 0.075 0.049 0.146 0.086 0.215 0.172 0.318 0.516 0.388 0.834 0.482 0.21-0.048 0.495-0.102 0.645-0.272 0.090-0.103 0.122-0.281 0.084-0.412-0.146-0.503-1.612-0.562-2.12-0.875-0.301-0.186-0.522-0.456-0.603-0.804-0.072-0.316-0.045-0.671 0.133-0.948 0.321-0.501 0.763-0.707 1.321-0.84z"></path>
      <path d="M49.554 15.645c0.369-0.030 0.731-0.028 1.092 0.070 0.416 0.113 0.857 0.345 1.067 0.738 0.101 0.189 0.179 0.528 0.111 0.738-0.337 0.073-0.748 0.024-1.094 0.020-0.051-0.171-0.094-0.303-0.233-0.422-0.176-0.147-0.405-0.217-0.633-0.192-0.179 0.018-0.408 0.106-0.508 0.266-0.060 0.095-0.084 0.193-0.047 0.303 0.216 0.637 1.511 0.485 2.015 0.773 0.321 0.183 0.589 0.506 0.68 0.867 0.098 0.387 0.033 0.818-0.19 1.151-0.334 0.498-0.864 0.685-1.423 0.793-0.549 0.068-1.185-0.049-1.645-0.366-0.471-0.325-0.613-0.733-0.719-1.266l1.176-0.009c0.071 0.18 0.136 0.32 0.289 0.445 0.203 0.166 0.444 0.242 0.706 0.207 0.203-0.027 0.403-0.12 0.525-0.29 0.079-0.112 0.119-0.247 0.081-0.383-0.147-0.523-1.446-0.491-1.961-0.768-0.348-0.188-0.624-0.5-0.734-0.883-0.094-0.324-0.054-0.662 0.117-0.953 0.285-0.483 0.806-0.719 1.33-0.84z"></path>
      <path d="M35.074 14.434c0.39 0.013 0.784 0.005 1.175 0.007-0.004 0.441 0.002 0.882 0.019 1.323l1.159 0.001-0.003 1.010-1.104-0c0 0.636-0.145 2.276 0.147 2.767 0.228 0.18 0.683 0.112 0.959 0.109l-0.004 0.837c0.003 0.086 0.002 0.13-0.042 0.205-0.154 0.074-0.312 0.091-0.483 0.092-0.448 0.004-1.067-0.077-1.39-0.413-0.647-0.674-0.441-2.657-0.437-3.598l-0.748 0.001 0.002-1.012 0.745 0.005 0.004-1.333z"></path>
      <path d="M45.148 14.429l1.153 0.007c-0.009 0.442 0.010 0.886 0.018 1.327l1.178-0.002-0.002 1.015-1.108-0.001c0.014 0.605-0.135 2.295 0.139 2.753 0.295 0.176 0.663 0.129 0.995 0.128-0.004 0.291 0.002 0.584 0.003 0.876l-0.014 0.111c-0.114 0.121-0.29 0.115-0.445 0.119-0.474 0.011-1.127-0.064-1.471-0.423-0.641-0.671-0.441-2.626-0.436-3.564l-0.789 0c-0.010-0.336-0.006-0.673-0.009-1.009l0.786 0.004 0.002-1.341z"></path>
      <path d="M20.277 13.674c0.061-0.003 0.119-0.004 0.18 0.005 0.188 0.027 0.374 0.118 0.478 0.284 0.11 0.176 0.125 0.409 0.14 0.613 0.075 1.006 0.019 2.053 0.019 3.063-0 0.825 0.091 1.943-0.062 2.737-0.048 0.25-0.214 0.369-0.412 0.504-0.076 0.009-0.155 0.020-0.231 0.015-0.17-0.010-0.331-0.085-0.441-0.215-0.109-0.128-0.106-0.386-0.115-0.548-0.069-1.158-0.011-2.352-0.010-3.513 0.001-0.66-0.090-1.923 0.049-2.512 0.050-0.211 0.239-0.321 0.405-0.433z"></path>
      <path d="M33.645 15.746l0.166-0.002c0.196 0.22 0.099 0.915 0.093 1.203-0.415-0.004-0.807-0.021-1.132 0.281-0.61 0.566-0.404 2.638-0.41 3.47-0.327-0.003-0.964 0.116-1.213-0.091l-0.013-0.206c0.006-1.541-0.033-3.082-0.023-4.623 0.396 0.012 0.793 0.004 1.189 0.002l-0.014 0.681c0.073-0.105 0.146-0.218 0.232-0.314 0.3-0.338 0.707-0.369 1.127-0.399z"></path>
      <path d="M38.147 15.766l1.243 0.001 0.003 4.933-1.258-0.002 0.011-4.932z"></path>
      <path d="M18.54 15.29c0.204 0.038 0.385 0.114 0.504 0.292 0.183 0.274 0.188 2.954 0.096 3.336-0.050 0.209-0.231 0.311-0.403 0.412-0.197-0.012-0.455-0.029-0.586-0.2-0.195-0.253-0.179-3.102-0.068-3.459 0.065-0.208 0.278-0.295 0.456-0.381z"></path>
      <path d="M38.687 13.734c0.369-0.043 0.707 0.215 0.761 0.583s-0.194 0.712-0.56 0.778c-0.247 0.044-0.498-0.050-0.655-0.245s-0.197-0.46-0.102-0.692c0.095-0.232 0.308-0.394 0.556-0.424z"></path>
    </symbol>
    <symbol id="icon-burger_new" viewBox="0 0 43 32">
      <path fill="#fff" style="fill: var(--color1, #fff)" d="M0 0h42.667v5.333h-42.667v-5.333zM10.667 13.333h32v5.333h-32v-5.333zM24 26.667h18.667v5.333h-18.667v-5.333z"></path>
    </symbol>
    <symbol id="icon-close_new" viewBox="0 0 32 32">
      <path fill="#fff" style="fill: var(--color1, #fff)" d="M27.179 0.918l-11.315 11.312-11.312-11.312-3.771 3.771 11.312 11.312-11.312 11.312 3.771 3.771 11.312-11.312 11.315 11.312 3.771-3.771-11.312-11.312 11.312-11.312-3.771-3.771z"></path>
    </symbol>
  </defs>
</svg>