<svg xmlns="http://www.w3.org/2000/svg" aria-hidden="true" style="position:absolute;width:0;height:0;overflow:hidden">
  <defs>
    <symbol id="icon-arrow-down" viewBox="0 0 32 32">
      <path fill="#fff" d="m31.33 15.949-3.232-3.232-9.813 9.813V.619h-4.571V22.53l-9.813-9.813-3.232 3.232 15.33 15.33 15.33-15.33z" style="fill:var(--color1, #fff)"/>
    </symbol>
    <symbol id="icon-burger-menu" viewBox="0 0 32 32">
      <path fill="#fff" d="M10.667 12h10.667v1.333H10.667V12zm2.666 3.333h8v1.333h-8v-1.333zm3.334 3.334h4.667V20h-4.667v-1.333z" style="fill:var(--color1, #fff)"/>
    </symbol>
    <symbol id="icon-caret-right" viewBox="0 0 31 32">
      <path fill="#fff" d="m11.52 25.527 10.24-8.96-10.24-8.96v17.92z" style="fill:var(--color1, #fff)"/>
    </symbol>
    <symbol id="icon-close" viewBox="0 0 32 32">
      <path fill="#fff" d="m22.835 22.364-.471.471a.668.668 0 0 1-.943 0L16 17.414l-5.421 5.421a.668.668 0 0 1-.943 0l-.471-.471a.668.668 0 0 1 0-.943L14.586 16l-5.421-5.421a.668.668 0 0 1 0-.943l.471-.471c.26-.26.682-.26.943 0L16 14.586l5.421-5.421c.26-.26.683-.26.943 0l.471.471c.26.26.26.682 0 .943L17.414 16l5.421 5.421c.26.26.26.683 0 .943z" style="fill:var(--color1, #fff)"/>
    </symbol>
    <symbol id="icon-Company-Logo" viewBox="0 0 73 32">
      <path fill="#fff" d="M13.471 6.854c.258-.03.558.028.807.104a2.13 2.13 0 0 1 1.293 1.064c.282.538.336 1.167.15 1.745-.236.713-.744 1.071-1.377 1.401l.007 2.08c.453.138.893.295 1.304.533.945.548 1.591 1.471 1.862 2.522a4.297 4.297 0 0 1-.453 3.254c-.529.89-1.371 1.548-2.38 1.8-1.318.329-2.436-.028-3.569-.701a95.159 95.159 0 0 0-1.484 1.624c.218.515.29 1.055.145 1.602a2.09 2.09 0 0 1-.996 1.264 2.233 2.233 0 0 1-1.739.191c-.585-.167-1.076-.53-1.362-1.074-.281-.535-.305-1.162-.123-1.733.207-.649.63-1.049 1.224-1.346.639-.25 1.168-.168 1.791.057.52-.547 1.009-1.121 1.534-1.663-.577-1.131-.764-2.095-.464-3.342-.653-.305-1.283-.66-1.937-.966a2.28 2.28 0 0 1-1.277.697 2.333 2.333 0 0 1-1.72-.413 2.19 2.19 0 0 1-.886-1.486c-.081-.578.072-1.215.442-1.671.382-.47.974-.754 1.572-.817a2.223 2.223 0 0 1 1.63.498c.582.487.75 1.093.82 1.816.619.38 1.329.673 1.974 1.012.84-.993 1.454-1.306 2.678-1.683l.001-2.064a2.835 2.835 0 0 1-.629-.335 2.21 2.21 0 0 1-.878-1.491 2.242 2.242 0 0 1 .465-1.659c.404-.507.945-.738 1.572-.821zm2.7 10.269a2.593 2.593 0 1 0-5.163.455 2.593 2.593 0 0 0 5.163-.456zm48.393-3.225c.422.001.844.007 1.266.017l-.002 2.231c.326-.253.679-.441 1.092-.502a2.087 2.087 0 0 1 1.572.399c.542.409.825 1.099.908 1.758.105.835-.092 1.639-.607 2.305-.342.33-.753.561-1.226.639-.695.114-1.245-.129-1.787-.533l-.002.487-1.211-.002-.001-6.799zm2.17 2.923c-.377.125-.638.304-.822.666a1.665 1.665 0 0 0-.059 1.318c.122.321.349.599.666.742.23.104.447.107.694.093.393-.149.658-.339.836-.733.185-.411.183-.906.007-1.32a1.267 1.267 0 0 0-.702-.7 1.299 1.299 0 0 0-.621-.066zm-38.437-2.936c.743 2.289 1.693 4.516 2.418 6.811l-1.369.002c-.16-.49-.315-1.045-.56-1.498-.16-.068-.349-.045-.52-.043-.66.007-1.321.004-1.981-.007a19.644 19.644 0 0 0-.538 1.547l-1.394-.001c.728-2.285 1.596-4.541 2.382-6.808.52.011 1.043-.001 1.563-.003zm-.78 1.692c-.288.819-.557 1.65-.873 2.459l1.002-.001.779-.009c-.11-.309-.745-2.313-.909-2.449zM57.159 13.9l1.309.008c-.018 1.578-.004 3.159-.004 4.737 0 .651.066 1.363-.007 2.006l-.072.049h-1.227l-.003-2.914c-.981-.027-1.969-.003-2.951-.002v2.917l-1.317-.003.005-6.796 1.312.003.001 2.779h2.955l-.002-2.784zm2.096 1.884c.434.012.87.008 1.304.01-.005.695-.115 2.613.053 3.188.066.227.199.434.413.544.322.166.65.07.971-.043.142-.159.264-.307.334-.512.23-.67.107-2.388.103-3.185.414.011.829.002 1.243 0-.01.477-.002.956-.002 1.433l.006 3.478c-.407.006-.814.003-1.22-.009l-.038-.044a1.225 1.225 0 0 0-.01-.29c-.382.165-.721.416-1.154.424-.503.01-1.048-.146-1.409-.508-.274-.274-.441-.642-.526-1.015-.185-.803-.076-2.583-.068-3.472zm-17.596-.137c.649-.051 1.326-.005 1.85.432.368.306.487.674.526 1.131l-1.173-.001c-.068-.125-.135-.271-.241-.369a.9.9 0 0 0-.643-.225c-.178.01-.405.081-.515.231-.067.091-.104.186-.078.3.133.602 1.663.527 2.15.846.31.203.548.567.617.93.069.371-.02.755-.244 1.058-.374.515-.95.701-1.549.793-.555.034-1.199-.115-1.643-.454-.416-.317-.566-.706-.623-1.207.395.001.791-.003 1.186-.011.023.074.049.146.086.215.172.318.516.388.834.482.21-.048.495-.102.645-.272a.474.474 0 0 0 .084-.412c-.146-.503-1.612-.562-2.12-.875-.301-.186-.522-.456-.603-.804-.072-.316-.045-.671.133-.948.321-.501.763-.707 1.321-.84zm7.896-.002c.369-.03.731-.028 1.092.07.416.113.857.345 1.067.738.101.189.179.528.111.738-.337.073-.748.024-1.094.02-.051-.171-.094-.303-.233-.422a.845.845 0 0 0-.633-.192c-.179.018-.408.106-.508.266a.338.338 0 0 0-.047.303c.216.637 1.511.485 2.015.773.321.183.589.506.68.867.098.387.033.818-.19 1.151-.334.498-.864.685-1.423.793-.549.068-1.185-.049-1.645-.366-.471-.325-.613-.733-.719-1.266l1.176-.009c.071.18.136.32.289.445a.9.9 0 0 0 .706.207.76.76 0 0 0 .525-.29.45.45 0 0 0 .081-.383c-.147-.523-1.446-.491-1.961-.768a1.486 1.486 0 0 1-.734-.883 1.2 1.2 0 0 1 .117-.953c.285-.483.806-.719 1.33-.84zm-14.481-1.211c.39.013.784.005 1.175.007-.004.441.002.882.019 1.323l1.159.001-.003 1.01H36.32c0 .636-.145 2.276.147 2.767.228.18.683.112.959.109l-.004.837c.003.086.002.13-.042.205a1.09 1.09 0 0 1-.483.092c-.448.004-1.067-.077-1.39-.413-.647-.674-.441-2.657-.437-3.598l-.748.001.002-1.012.745.005.004-1.333zm10.075-.005 1.153.007c-.009.442.01.886.018 1.327l1.178-.002-.002 1.015-1.108-.001c.013.605-.135 2.295.139 2.753.295.176.664.129.995.128-.004.291.002.584.003.876l-.014.111c-.114.121-.29.115-.445.119-.474.011-1.128-.064-1.471-.423-.641-.671-.441-2.626-.436-3.564h-.789c-.01-.336-.006-.673-.009-1.009l.786.004.002-1.341zm-24.871-.755a.903.903 0 0 1 .18.005.665.665 0 0 1 .478.284c.11.176.125.409.14.613.075 1.006.019 2.053.019 3.063 0 .825.091 1.943-.062 2.737-.048.25-.214.369-.412.504-.076.009-.155.02-.231.015a.623.623 0 0 1-.441-.215c-.109-.128-.106-.386-.115-.548-.069-1.158-.011-2.352-.01-3.513.001-.66-.09-1.923.049-2.512.05-.211.239-.321.405-.433zm13.367 2.072.166-.002c.196.22.099.915.093 1.203-.415-.004-.807-.021-1.132.281-.61.566-.404 2.638-.41 3.47-.327-.003-.964.116-1.213-.091l-.013-.206c.006-1.541-.033-3.082-.023-4.623.396.012.793.004 1.189.002l-.014.681c.073-.105.146-.218.232-.314.3-.338.707-.369 1.127-.399zm4.502.02 1.243.001.003 4.933-1.258-.002.011-4.932zM18.54 15.29c.204.038.385.114.504.292.183.274.188 2.954.096 3.336-.05.209-.231.311-.403.412-.197-.012-.455-.029-.586-.2-.195-.253-.179-3.102-.068-3.459.065-.207.278-.295.456-.381zm20.147-1.556a.689.689 0 1 1 .16 1.368.689.689 0 0 1-.16-1.368z" style="fill:var(--color1, #fff)"/>
    </symbol>
    <symbol id="icon-Facebook" viewBox="0 0 31 32">
      <path fill="#fff" d="M28.16 16.51c0-7.112-5.731-12.878-12.8-12.878S2.56 9.398 2.56 16.51c0 6.428 4.681 11.756 10.8 12.722v-8.999h-3.25V16.51h3.25v-2.837c0-3.228 1.911-5.01 4.835-5.01 1.401 0 2.865.252 2.865.252v3.169h-1.614c-1.59 0-2.086.993-2.086 2.011v2.416h3.55l-.567 3.723H17.36v8.999c6.119-.966 10.8-6.294 10.8-12.722z" style="fill:var(--color1, #fff)"/>
    </symbol>
    <symbol id="icon-Instagram" viewBox="0 0 31 32">
      <path fill="#fff" d="M20.48 4.912H10.24a6.4 6.4 0 0 0-6.4 6.4v10.24a6.4 6.4 0 0 0 6.4 6.4h10.24a6.4 6.4 0 0 0 6.4-6.4v-10.24a6.4 6.4 0 0 0-6.4-6.4zm4.16 16.64a4.172 4.172 0 0 1-4.16 4.16H10.24a4.172 4.172 0 0 1-4.16-4.16v-10.24a4.172 4.172 0 0 1 4.16-4.16h10.24a4.172 4.172 0 0 1 4.16 4.16v10.24zm-3.2-9.92a1.28 1.28 0 1 0 0-2.56 1.28 1.28 0 0 0 0 2.56zm-6.08-.96a5.76 5.76 0 1 0 5.76 5.76 5.749 5.749 0 0 0-5.76-5.76zm-3.52 5.76a3.52 3.52 0 1 0 7.04 0 3.52 3.52 0 0 0-7.04 0z" style="fill:var(--color1, #fff)"/>
    </symbol>
    <symbol id="icon-logo-icon" viewBox="0 0 32 32">
      <path fill="#fff" d="M17.284 3.195c.38-.041.82.039 1.185.142.827.235 1.5.738 1.899 1.456.415.736.494 1.596.221 2.387-.347.976-1.092 1.466-2.022 1.917l.01 2.845c.665.189 1.311.403 1.915.728a5.591 5.591 0 0 1 2.733 3.45 5.531 5.531 0 0 1-.665 4.452 5.645 5.645 0 0 1-3.495 2.461c-1.935.451-3.576-.037-5.24-.959-.735.732-1.462 1.473-2.179 2.222.32.704.427 1.444.214 2.192-.208.732-.758 1.359-1.462 1.73-.789.416-1.688.492-2.553.261-.858-.229-1.58-.724-1.999-1.469-.413-.732-.448-1.589-.18-2.371.305-.888.925-1.435 1.797-1.841.939-.342 1.715-.23 2.631.078.763-.748 1.481-1.534 2.252-2.275-.847-1.548-1.122-2.866-.681-4.572-.959-.417-1.883-.903-2.843-1.321a3.43 3.43 0 0 1-1.875.954 3.617 3.617 0 0 1-2.525-.566 2.967 2.967 0 0 1-1.301-2.033c-.119-.791.105-1.662.648-2.286.56-.644 1.43-1.032 2.308-1.117a3.427 3.427 0 0 1 2.392.681c.855.667 1.101 1.496 1.205 2.484.91.52 1.951.92 2.899 1.384 1.233-1.358 2.134-1.787 3.931-2.303l.002-2.824a4.27 4.27 0 0 1-.923-.458c-.709-.489-1.175-1.225-1.29-2.04a2.916 2.916 0 0 1 .682-2.269c.594-.694 1.387-1.01 2.307-1.123zm3.963 14.047c-.183-1.943-2.014-3.383-4.1-3.225-2.104.16-3.667 1.885-3.483 3.844s2.046 3.406 4.148 3.221c2.084-.183 3.618-1.898 3.435-3.841zm6.029-4.718c.089-.004.175-.005.264.007.277.037.549.162.702.388.162.24.184.56.206.838.11 1.377.028 2.809.028 4.19 0 1.128.134 2.658-.091 3.745-.071.341-.314.505-.605.69-.111.013-.227.027-.339.021a.944.944 0 0 1-.648-.294c-.16-.176-.155-.529-.169-.749-.102-1.584-.016-3.218-.014-4.806.001-.903-.132-2.63.071-3.436.073-.288.352-.439.595-.593zm-2.55 2.212c.3.051.565.156.74.399.269.374.277 4.041.142 4.564-.074.286-.339.426-.591.563-.288-.016-.668-.04-.86-.273-.287-.346-.263-4.243-.1-4.732.095-.284.408-.404.67-.522z" style="fill:var(--color1, #fff)"/>
    </symbol>
    <symbol id="icon-transparent-triangle" viewBox="0 0 32 32">
      <path fill="#fff" d="M7.381 29.181a1.343 1.343 0 0 0 1.378-.085l17.333-12a1.33 1.33 0 0 0 .422-1.715 1.327 1.327 0 0 0-.422-.477l-17.333-12a1.327 1.327 0 0 0-2.092 1.095v24a1.333 1.333 0 0 0 .714 1.181zM9.333 6.545 22.99 16 9.333 25.455V6.546z" style="fill:var(--color1, #fff)"/>
    </symbol>
    <symbol id="icon-triangle-white" viewBox="0 0 17 32">
      <path fill="#fff" d="m0 31.878 17.067-14.933L0 2.012v29.867z" style="fill:var(--color1, #fff)"/>
    </symbol>
    <symbol id="icon-Youtube" viewBox="0 0 31 32">
      <path fill="#fff" d="M27.639 9.981a3.199 3.199 0 0 0-2.255-2.261c-2.004-.55-10.024-.559-10.024-.559s-8.018-.009-10.024.517a3.272 3.272 0 0 0-2.261 2.275c-.529 2.004-.534 6.162-.534 6.162s-.005 4.178.52 6.162a3.204 3.204 0 0 0 2.257 2.259c2.025.55 10.022.559 10.022.559s8.019.009 10.024-.516a3.221 3.221 0 0 0 2.262-2.257c.53-2.003.534-6.159.534-6.159s.026-4.179-.521-6.184zm-14.844 9.987.006-7.68 6.665 3.846-6.671 3.834z" style="fill:var(--color1, #fff)"/>
    </symbol>
    <symbol id="icon-btn-prev" viewBox="0 0 32 32">
      <path fill="#fff" style="fill: var(--color1, #fff)" d="M19.902 28.098l-9.813-9.813h21.911v-4.571h-21.911l9.813-9.813-3.232-3.232-15.33 15.33 15.33 15.33 3.232-3.232z"></path>
    </symbol>
    <symbol id="icon-btn-next" viewBox="0 0 32 32">
      <path fill="#fff" style="fill: var(--color1, #fff)" d="M12.098 28.098l3.232 3.232 15.33-15.33-15.33-15.33-3.232 3.232 9.813 9.813h-21.911v4.571h21.911l-9.813 9.813z"></path>
    </symbol>
  </defs>
</svg>